Music_Guile:
	musicheader 4, 1, Music_Guile_Ch1
	musicheader 1, 2, Music_Guile_Ch2
	musicheader 1, 3, Music_Guile_Ch3
	musicheader 1, 4, Music_Guile_Ch4

Music_Guile_Ch1:
	tempo $9A
	volume $77
	stereopanning $77
	;from here
	notetype $C, $00
	note __, 5
	dutycycle 1
	intensity $F6
	vibrato $0F, $13
	octave 3
	note G_, 1
	note __, 1
	note G_, 1
	note F_, 1
	note __, 1
	note F_, 1
	note G_, 6
	note __, 1
	note G_, 1
	note F_, 2
	note G_, 1
	note __, 1
	note G_, 1
	note F_, 1
	note __, 1
	note F_, 1
	note G_, 6
	note __, 1
	note G_, 1
	note F_, 2
	note G_, 1
	note F_, 1
	note __, 1
	note G_, 2
	note F_, 1
	note __, 1
	note G#, 1
	note __, 1
	note G#, 1
	note G_, 2
	note F_, 2
	note D_, 2
Music_Guile_Ch1_loop:
	intensity $F6
	dutycycle 1
	note G_, 1
	note __, 1
	note G_, 1
	note F_, 1
	note __, 1
	note F_, 1
	note G_, 6
	note __, 1
	note G_, 1
	note F_, 2
	note G_, 1
	note __, 1
	note G_, 1
	note F_, 1
	note __, 1
	note F_, 1
	note G_, 6
	note __, 1
	note G_, 1
	note F_, 2
	note G_, 1
	note F_, 1
	note __, 1
	note G_, 2
	note F_, 1
	note __, 1
	note G#, 1
	note __, 1
	note G#, 1
	note G_, 2
	note F_, 2
	note D_, 2
	intensity $F3
	dutycycle 0
	;to here
	note __, 16
	note __, 16
	note __, 16
	note __, 16
	note __, 16
	note __, 16
	note __, 16
	note __, 16
	note __, 16
	note __, 16
	octave 4
	note D#, 1
	note D_, 1
	note __, 1
	note D#, 6
	note __, 5
	note D_, 2
	note D#, 1
	note __, 1
	note D#, 1
	note D_, 1
	note __, 1
	note D_, 1
	note D#, 6
	note __, 16
	note __, 16
	note __, 4
	note D#, 1
	note D_, 1
	note __, 1
	note D#, 6
	note __, 5
	note D_, 2
	note D#, 1
	note __, 1
	note D#, 1
	note D_, 1
	note __, 1
	note D_, 1
	note D#, 6
	note __, 16
	note __, 16
	note __, 16
	note __, 16
	note __, 16
	note __, 16
	note __, 16
	note __, 4
	note D#, 1
	note __, 1
	note D#, 1
	note D_, 1
	note __, 1
	note D_, 1
	note D#, 6
	note __, 16
	note __, 16
	note __, 16
	note __, 4
	; from here
	intensity $F6
	dutycycle 1
	octave 3
	note G_, 1
	note __, 1
	note G_, 1
	note F_, 1
	note __, 1
	note F_, 1
	note G_, 6
	note __, 1
	note G_, 1
	note F_, 2
	note G_, 1
	note __, 1
	note G_, 1
	note F_, 1
	note __, 1
	note F_, 1
	note G_, 6
	note __, 1
	note G_, 1
	note F_, 2
	note G_, 1
	note __, 1
	note G_, 1
	note F_, 1
	note __, 1
	note F_, 1
	note G_, 6
	note __, 1
	note G_, 1
	note F_, 2
	note G_, 1
	note F_, 1
	note __, 1
	note G_, 2
	note F_, 1
	note __, 1
	note G#, 1
	note __, 1
	note G#, 1
	note G_, 2
	note F_, 2
	note D_, 2
	;to here
	loopchannel 0, Music_Guile_Ch1_loop

Music_Guile_Ch2:
	;from here
	notetype $C, $00
	note __, 5
	intensity $F3
	vibrato $0F, $13
	octave 4
	note D#, 1
	note __, 1
	note D#, 1
	note D_, 1
	note __, 1
	note D_, 1
	note D#, 6
	note __, 1
	note D#, 1
	note D_, 2
	note D#, 1
	note __, 1
	note D#, 1
	note D_, 1
	note __, 1
	note D_, 1
	note D#, 6
	note __, 1
	note D#, 1
	note D_, 2
	note D#, 1
	note D_, 1
	note __, 1
	note D#, 2
	note D_, 1
	note __, 1
	note F_, 1
	note __, 1
	note F_, 1
	note D#, 2
	note D_, 2
	octave 3
	note A#, 2
Music_Guile_Ch2_loop:
	intensity $F3
	dutycycle 0
	octave 4
	note D#, 1
	note __, 1
	note D#, 1
	note D_, 1
	note __, 1
	note D_, 1
	note D#, 6
	note __, 1
	note D#, 1
	note D_, 2
	note D#, 1
	note __, 1
	note D#, 1
	note D_, 1
	note __, 1
	note D_, 1
	note D#, 6
	note __, 1
	note D#, 1
	note D_, 2
	note D#, 1
	note D_, 1
	note __, 1
	note D#, 2
	note D_, 1
	note __, 1
	note F_, 1
	note __, 1
	note F_, 1
	note D#, 2
	note D_, 2
	octave 3
	note A#, 2
	intensity $F6
	dutycycle 1
	; to here
	note C_, 8
	note __, 2
	note D_, 1
	note __, 1
	note D#, 1
	note F_, 3
	note G_, 3
	note G_, 1
	note F_, 1
	note __, 1
	note A#, 4
	note G#, 2
	note G_, 1
	note G#, 3
	note D_, 4
	note D#, 3
	note F_, 1
	note __, 2
	octave 2
	note A#, 2
	octave 3
	note D_, 2
	note F_, 2
	note G#, 4
	note A#, 3
	note G_, 1
	note __, 2
	note G_, 1
	note __, 1
	note F_, 1
	note D_, 3
	note C_, 8
	note __, 2
	note D_, 1
	note __, 1
	note D#, 1
	note F_, 3
	note G_, 3
	note G_, 1
	note G#, 1
	note __, 1
	note F_, 4
	note F_, 2
	note G_, 1
	note G#, 3
	note A#, 8
	note A#, 2
	octave 4
	note C_, 1
	note __, 1
	note D_, 1
	note D#, 3
	note G_, 4
	note F_, 4
	note D_, 4
	octave 3
	note A#, 4
	octave 4
	note C_, 10
	note D_, 2
	note D#, 2
	note F_, 2
	note C_, 10
	note D_, 1
	note __, 1
	note D#, 1
	note F_, 3
	note G_, 16
	note __, 16
	note G#, 8
	note G#, 2
	note G_, 1
	note __, 1
	note F_, 1
	note G_, 3
	note F_, 4
	note D#, 4
	note D_, 4
	octave 3
	note A#, 4
	octave 4
	note C_, 4
	octave 3
	note G_, 12
	note __, 12
	note A#, 1
	note __, 1
	note A#, 2
	octave 4
	note C_, 8
	note __, 2
	note D_, 1
	note __, 1
	note D#, 1
	note F_, 2
	note G_, 3
	note __, 1
	note G#, 3
	note F_, 4
	note D_, 1
	note __, 1
	note C_, 1
	note D_, 3
	note D_, 4
	note D#, 3
	note F_, 1
	note __, 2
	octave 3
	note A#, 3
	octave 4
	note F_, 2
	note G#, 6
	note __, 1
	note G_, 1
	note F_, 1
	note G_, 4
	note F_, 2
	note D#, 2
	note C_, 8
	note __, 2
	note D_, 2
	note D#, 2
	note F_, 2
	note F_, 8
	note __, 2
	note G_, 1
	note __, 1
	note D#, 1
	note D_, 3
	note D_, 2
	note D#, 1
	note C_, 12
	note __, 13
	octave 3
	note A#, 1
	note __, 1
	note A#, 2
	octave 4
	note C_, 8
	note __, 2
	note D_, 1
	note __, 1
	note D#, 1
	note F_, 2
	note G_, 4
	note F_, 3
	note A#, 4
	note G#, 2
	note G_, 2
	note F_, 2
	note D_, 1
	note D#, 1
	note __, 1
	note C_, 12
	note __, 1
	;from here ch1
	intensity $F3
	dutycycle 0
	note D#, 1
	note __, 1
	note D#, 1
	note D_, 1
	note __, 1
	note D_, 1
	note D#, 6
	note D_, 2
	note D#, 2
	note D#, 1
	note __, 1
	note D#, 1
	note D_, 1
	note __, 1
	note D_, 1
	note D#, 6
	note __, 1
	note D#, 1
	note D_, 2
	note D#, 1
	note __, 1
	note D#, 1
	note D_, 1
	note __, 1
	note D_, 1
	note D#, 6
	note __, 1
	note D#, 1
	note D_, 2
	note D#, 1
	note D_, 1
	note __, 1
	note D#, 2
	note D_, 1
	note __, 1
	note F_, 1
	note __, 1
	note F_, 1
	note D#, 2
	note D_, 2
	octave 3
	note A#, 2
	; to here
	loopchannel 0, Music_Guile_Ch2_loop

Music_Guile_Ch3:
	notetype $C, $00
	note __, 5
	dutycycle 7
	intensity $17
	octave 2
	note C_, 8
	note __, 1
	note C_, 1
	note G_, 1
	note F_, 1
	note D#, 1
	note D_, 1
	note C_, 1
	octave 1
	note A#, 1
	note G#, 8
	note __, 1
	note G#, 1
	octave 2
	note G_, 1
	note G#, 1
	note __, 1
	note G#, 1
	octave 1
	note G#, 2
	note F_, 4
	note F_, 1
	note F_, 2
	octave 2
	note F_, 1
	note __, 1
	octave 1
	note G_, 2
	note G_, 2
	note G_, 1
	note A#, 1
	octave 2
	note C_, 1
Music_Guile_Ch3_loop:
	note C_, 2
	octave 1
	note A#, 1
	octave 2
	note C_, 1
	note __, 3
	note C_, 1
	note C_, 1
	octave 3
	note C_, 1
	octave 2
	note C_, 1
	octave 3
	note C_, 1
	note __, 1
	octave 2
	note C_, 1
	octave 1
	note A#, 2
	note G#, 2
	note G_, 1
	note G#, 1
	note __, 3
	note G#, 1
	note G#, 1
	octave 2
	note G#, 1
	octave 1
	note G#, 1
	octave 2
	note G#, 1
	note __, 1
	octave 1
	note G#, 1
	note G_, 2
	note F_, 1
	note F_, 1
	note __, 1
	note F_, 2
	note F_, 1
	note __, 1
	note G_, 1
	note __, 1
	note G_, 1
	note __, 1
	note G_, 1
	note __, 1
	note G_, 1
	note A#, 1
	octave 2
	note C_, 1
	note C_, 4
	note C_, 1
	note __, 2
	note C_, 1
	note C_, 4
	note C_, 1
	note __, 1
	note C_, 1
	note C_, 1
	octave 1
	note G#, 4
	note G#, 1
	note __, 2
	note G#, 1
	note G#, 4
	note G#, 1
	note __, 1
	note G#, 1
	note G#, 1
	note A#, 4
	note A#, 1
	note __, 2
	note A#, 1
	note A#, 4
	note A#, 1
	note __, 1
	note A#, 1
	note A#, 1
	note G_, 4
	note G_, 1
	note __, 2
	note G_, 1
	note G_, 4
	note G_, 1
	note __, 1
	note G_, 1
	octave 2
	note G_, 1
	note C_, 4
	note C_, 1
	note __, 2
	note C_, 1
	note C_, 4
	note C_, 1
	note __, 1
	note C_, 1
	note C_, 1
	octave 1
	note G#, 4
	note G#, 1
	note __, 2
	note G#, 1
	note G#, 4
	note G#, 1
	note __, 1
	note G#, 1
	note G#, 1
	note A#, 4
	note A#, 1
	note __, 2
	note A#, 1
	note A#, 4
	note A#, 1
	note __, 1
	note A#, 1
	note A#, 1
	note G_, 3
	note G_, 1
	note G_, 4
	note G_, 1
	note F_, 1
	note A#, 1
	octave 2
	note C_, 1
	note D_, 1
	note D#, 1
	note F_, 1
	note G_, 1
	octave 1
	note G#, 2
	note G#, 1
	note G#, 1
	note G#, 1
	note G#, 1
	note __, 1
	note G#, 1
	note G#, 4
	note G#, 1
	note G#, 1
	octave 2
	note G_, 1
	note G#, 1
	octave 1
	note A#, 2
	note A#, 1
	note A#, 1
	note A#, 1
	note A#, 1
	note __, 1
	note A#, 1
	note A#, 4
	note A#, 1
	note A#, 1
	note A#, 1
	octave 2
	note A#, 1
	note C_, 2
	note C_, 1
	note C_, 2
	note C_, 1
	octave 1
	note A#, 1
	octave 2
	note A#, 1
	note __, 1
	note C_, 1
	note C_, 2
	note __, 1
	octave 3
	note C_, 1
	octave 1
	note A#, 2
	octave 2
	note C_, 2
	note C_, 1
	note C_, 2
	note C_, 1
	octave 1
	note A#, 1
	octave 2
	note A#, 1
	note __, 1
	note C_, 1
	note C_, 2
	note __, 1
	octave 1
	note A#, 2
	note __, 1
	note G#, 2
	note G#, 1
	note G#, 1
	note G#, 1
	note G#, 1
	note __, 1
	note G#, 1
	note G#, 4
	note G#, 1
	note G#, 1
	octave 2
	note G_, 1
	note G#, 1
	octave 1
	note A#, 2
	note A#, 1
	note A#, 1
	note A#, 1
	note A#, 1
	note __, 1
	note A#, 1
	note A#, 4
	note A#, 1
	note A#, 1
	note A#, 1
	octave 2
	note A#, 1
	note C_, 2
	note C_, 1
	note C_, 2
	note C_, 1
	octave 1
	note A#, 1
	octave 2
	note A#, 1
	note __, 1
	note C_, 1
	note C_, 2
	note __, 1
	octave 3
	note C_, 1
	octave 1
	note A#, 2
	octave 2
	note C_, 2
	note C_, 1
	note C_, 2
	note C_, 1
	octave 1
	note A#, 1
	octave 2
	note A#, 1
	note __, 1
	note C_, 1
	note C_, 2
	note __, 1
	octave 1
	note A#, 2
	note __, 1
	octave 2
	note C_, 4
	note C_, 1
	note __, 2
	note C_, 1
	note C_, 4
	note C_, 1
	note __, 2
	octave 1
	note G#, 3
	note G#, 1
	note F_, 2
	note __, 1
	note F_, 2
	note F_, 1
	note F_, 2
	octave 2
	note D#, 2
	note __, 1
	octave 1
	note D#, 1
	note F_, 1
	note A#, 4
	note A#, 1
	note __, 2
	note A#, 1
	note A#, 4
	octave 2
	note D_, 3
	note D#, 4
	note D#, 1
	note D#, 1
	note __, 2
	octave 1
	note D#, 1
	note D#, 4
	note D#, 1
	note __, 1
	octave 2
	note D_, 1
	note D#, 1
	octave 1
	note G#, 2
	note G#, 1
	note G#, 1
	note G#, 1
	note G#, 1
	note __, 1
	note G#, 1
	note G#, 4
	note G#, 1
	note G#, 1
	octave 2
	note G_, 1
	note G#, 1
	octave 1
	note A#, 2
	note A#, 1
	note A#, 1
	note A#, 1
	note A#, 1
	note __, 1
	note A#, 1
	note A#, 4
	note A#, 1
	note A#, 1
	note A#, 1
	octave 2
	note A#, 1
	note C_, 2
	note C_, 1
	note C_, 4
	note __, 1
	note C_, 1
	note C_, 1
	note C_, 3
	note C_, 1
	octave 1
	note A#, 1
	octave 2
	note C_, 2
	note C_, 1
	note C_, 1
	octave 3
	note C_, 1
	octave 2
	note C_, 1
	note C_, 1
	note D_, 1
	note D#, 1
	note C_, 1
	octave 3
	note C_, 1
	octave 2
	note C_, 1
	octave 3
	note C_, 1
	octave 2
	note C_, 1
	octave 3
	note C_, 1
	octave 1
	note A#, 2
	note G#, 2
	note G#, 1
	note G#, 1
	note G#, 1
	note G#, 1
	note __, 1
	note G#, 1
	note G#, 4
	note G#, 1
	note G#, 1
	octave 2
	note G_, 1
	note G#, 1
	octave 1
	note A#, 2
	note A#, 1
	note A#, 1
	note __, 1
	note A#, 2
	note A#, 1
	note A#, 1
	note A#, 1
	note A#, 2
	note __, 1
	note A#, 1
	note G#, 1
	note A#, 1
	octave 2
	note C_, 2
	note C_, 1
	note C_, 2
	note C_, 2
	octave 3
	note C_, 1
	octave 2
	note C_, 3
	note C_, 2
	note C_, 2
	note C_, 1
	note C_, 2
	note C_, 1
	note C_, 2
	note C_, 2
	octave 3
	note C_, 1
	octave 2
	note A#, 1
	note D#, 1
	note F_, 1
	note G_, 1
	octave 3
	note C_, 1
	octave 2
	note G_, 1
	note F_, 1
	note D#, 1
	note C_, 8
	note __, 1
	note C_, 1
	note G_, 1
	note F_, 1
	note D#, 1
	note D_, 1
	note C_, 1
	octave 1
	note A#, 1
	note G#, 8
	note __, 1
	note G#, 1
	octave 2
	note G_, 1
	note G#, 1
	note __, 1
	note G#, 1
	octave 1
	note G#, 2
	note F_, 4
	note F_, 1
	note F_, 2
	octave 2
	note F_, 1
	note __, 1
	octave 1
	note G_, 2
	note G_, 2
	note G_, 1
	note A#, 1
	octave 2
	note C_, 1
	loopchannel 0, Music_Guile_Ch3_loop

Music_Guile_Ch4:
	togglenoise 3
	notetype $C
	note A#, 1
	note D_, 4
	note A#, 4
	note A#, 4
	note __, 4
	note A#, 4
	note A#, 4
	note A#, 4
	note __, 4
	note A#, 4
	note A#, 1
	note __, 2
	note A#, 1
	note D_, 1
	note A#, 1
	note A#, 1
	note D_, 1
	note D_, 1
	note A#, 1
	note D_, 1
	note D_, 1
	note C#, 1
	note C#, 1
	note __, 2
Music_Guile_Ch4_loop:	
	note A#, 1
	note __, 2
	note A#, 1
	note D_, 1
	note __, 2
	note A#, 1
	note __, 1
	note A#, 1
	note A#, 1
	note __, 1
	note D_, 1
	note __, 2
	note A#, 1
	note A#, 1
	note __, 2
	note A#, 1
	note D_, 1
	note __, 2
	note A#, 1
	note __, 1
	note A#, 1
	note A#, 1
	note __, 1
	note D_, 1
	note __, 3
	note A#, 1
	note __, 2
	note A#, 1
	note D_, 1
	note __, 2
	note A#, 1
	note D_, 1
	note A#, 1
	note D_, 1
	note A#, 1
	note D_, 1
	note D_, 1
	note C#, 1
	note C#, 1
	note A#, 1
	note __, 3
	note D_, 1
	note __, 2
	note A#, 1
	note A#, 1
	note __, 3
	note D_, 1
	note __, 3
	note A#, 1
	note __, 3
	note D_, 1
	note __, 2
	note A#, 1
	note A#, 1
	note __, 3
	note D_, 1
	note __, 3
	note A#, 1
	note __, 3
	note D_, 1
	note __, 2
	note A#, 1
	note A#, 1
	note __, 3
	note D_, 1
	note __, 3
	note A#, 1
	note __, 3
	note D_, 1
	note __, 2
	note A#, 1
	note A#, 1
	note __, 2
	note A#, 1
	note D_, 1
	note __, 2
	note A#, 1
	note A#, 1
	note __, 3
	note D_, 1
	note __, 2
	note A#, 1
	note A#, 1
	note __, 3
	note D_, 1
	note __, 3
	note A#, 1
	note __, 3
	note D_, 1
	note __, 2
	note A#, 1
	note A#, 1
	note __, 3
	note D_, 1
	note __, 3
	note A#, 1
	note __, 3
	note D_, 1
	note __, 2
	note A#, 1
	note A#, 1
	note __, 3
	note D_, 1
	note __, 3
	note D_, 1
	note A#, 1
	note __, 1
	note A#, 1
	note D_, 1
	note __, 2
	note A#, 1
	note A#, 1
	note C#, 1
	note C#, 1
	note C#, 1
	note C#, 1
	note C#, 1
	note C#, 1
	note C#, 1
	note A#, 1
	note __, 2
	note A#, 1
	note D_, 1
	note A#, 1
	note __, 1
	note A#, 1
	note A#, 1
	note __, 2
	note A#, 1
	note D_, 1
	note __, 3
	note A#, 1
	note __, 2
	note A#, 1
	note D_, 1
	note A#, 1
	note __, 1
	note A#, 1
	note A#, 1
	note __, 2
	note A#, 1
	note D_, 1
	note __, 3
	note A#, 1
	note __, 2
	note A#, 1
	note D_, 1
	note A#, 1
	note __, 1
	note A#, 1
	note A#, 1
	note __, 2
	note A#, 1
	note D_, 1
	note __, 3
	note A#, 1
	note D_, 1
	note D_, 1
	note A#, 1
	note D_, 1
	note A#, 1
	note A#, 1
	note D_, 1
	note D_, 1
	note D_, 1
	note D_, 1
	note D_, 1
	note D_, 1
	note D_, 1
	note C#, 1
	note A#, 1
	note A#, 1
	note __, 2
	note A#, 1
	note D_, 1
	note A#, 1
	note __, 1
	note A#, 1
	note A#, 1
	note __, 2
	note A#, 1
	note D_, 1
	note __, 3
	note A#, 1
	note __, 2
	note A#, 1
	note D_, 1
	note A#, 1
	note __, 1
	note A#, 1
	note A#, 1
	note __, 2
	note A#, 1
	note D_, 1
	note __, 3
	note A#, 1
	note __, 2
	note A#, 1
	note D_, 1
	note A#, 1
	note __, 1
	note A#, 1
	note A#, 1
	note __, 2
	note A#, 1
	note D_, 1
	note __, 3
	note A#, 1
	note D_, 1
	note D_, 1
	note A#, 1
	note D_, 1
	note A#, 1
	note A#, 1
	note D_, 1
	note D_, 1
	note D_, 1
	note C#, 1
	note C#, 1
	note D_, 1
	note D_, 1
	note C#, 1
	note C#, 1
	note A#, 1
	note __, 3
	note D_, 1
	note A#, 1
	note __, 1
	note A#, 1
	note A#, 1
	note __, 3
	note D_, 1
	note __, 2
	note A#, 1
	note __, 3
	note A#, 1
	note D_, 1
	note __, 1
	note A#, 1
	note __, 3
	note A#, 1
	note A#, 1
	note D_, 1
	note __, 3
	note A#, 1
	note __, 3
	note D_, 1
	note A#, 1
	note __, 1
	note A#, 1
	note A#, 1
	note __, 3
	note D_, 1
	note __, 2
	note A#, 1
	note __, 3
	note A#, 1
	note D_, 1
	note __, 2
	note A#, 1
	note A#, 1
	note __, 2
	note A#, 1
	note D_, 1
	note __, 2
	note A#, 1
	note A#, 1
	note __, 2
	note A#, 1
	note D_, 1
	note __, 2
	note A#, 1
	note A#, 1
	note __, 2
	note A#, 1
	note D_, 1
	note __, 3
	note A#, 1
	note __, 2
	note A#, 1
	note D_, 1
	note __, 2
	note A#, 1
	note A#, 1
	note __, 1
	note A#, 1
	note A#, 1
	note D_, 1
	note __, 3
	note A#, 1
	note __, 1
	note A#, 1
	note D_, 1
	note __, 1
	note A#, 1
	note D_, 1
	note A#, 1
	note A#, 1
	note D_, 1
	note __, 1
	note D_, 1
	note __, 2
	note D_, 1
	note D_, 1
	note A#, 1
	note __, 2
	note A#, 1
	note D_, 1
	note __, 2
	note A#, 1
	note D_, 1
	note A#, 1
	note __, 1
	note A#, 1
	note __, 1
	note A#, 1
	note D_, 1
	note __, 1
	note D_, 1
	note __, 2
	note A#, 1
	note D_, 1
	note __, 2
	note A#, 1
	note A#, 1
	note __, 2
	note A#, 1
	note D_, 1
	note __, 3
	note A#, 1
	note __, 2
	note A#, 1
	note D_, 1
	note __, 2
	note A#, 1
	note A#, 1
	note __, 2
	note A#, 1
	note D_, 1
	note __, 1
	note D_, 1
	note D_, 1
	note D_, 1
	note A#, 1
	note __, 1
	note D_, 1
	note __, 1
	note D_, 1
	note D_, 1
	note A#, 1
	note A#, 1
	note D_, 1
	note D_, 1
	note A#, 1
	note D_, 1
	note __, 1
	note D_, 1
	note D_, 1
	note A#, 1
	note __, 1
	note C#, 1
	note C#, 1
	note C#, 1
	note C#, 1
	note A#, 1
	note C#, 1
	note C#, 1
	note __, 1
	note D_, 1
	note D_, 1
	note D_, 1
	note D_, 1
	note C#, 1
	note C#, 1
	note A#, 1
	note __, 2
	note A#, 1
	note D_, 1
	note __, 2
	note A#, 1
	note __, 1
	note A#, 1
	note A#, 1
	note __, 1
	note D_, 1
	note __, 2
	note A#, 1
	note A#, 1
	note __, 2
	note A#, 1
	note D_, 1
	note __, 2
	note A#, 1
	note __, 1
	note A#, 1
	note A#, 1
	note __, 1
	note D_, 1
	note __, 3
	note A#, 1
	note __, 2
	note A#, 1
	note D_, 1
	note __, 2
	note A#, 1
	note D_, 1
	note A#, 1
	note D_, 1
	note A#, 1
	note D_, 1
	note D_, 1
	note C#, 1
	note C#, 1
	loopchannel 0, Music_Guile_Ch4_loop
